<svg width="21" height="27" viewBox="0 0 21 27" fill="none" xmlns="http://www.w3.org/2000/svg">
<path d="M19.6337 19.9024L19.6332 19.9019C19.5831 19.8413 19.5278 19.7762 19.4684 19.706C19.0291 19.1881 18.3593 18.3983 17.8121 17.1519C17.1909 15.7368 16.7462 13.7979 16.7462 10.9688C16.7462 7.38776 14.5322 4.66216 11.7146 4.00369L10.7491 3.77804V2.78648V1.6875C10.7491 1.52096 10.6891 1.39618 10.6254 1.32447C10.5638 1.25504 10.5172 1.25 10.5 1.25C10.4828 1.25 10.4362 1.25504 10.3746 1.32447C10.3109 1.39618 10.2509 1.52096 10.2509 1.6875V2.78648V3.77804L9.2854 4.00369C6.46782 4.66216 4.25377 7.38776 4.25377 10.9688C4.25377 13.7979 3.80907 15.7368 3.18788 17.1519C2.64073 18.3983 1.97089 19.1881 1.53162 19.706C1.47216 19.7762 1.41692 19.8413 1.36679 19.9019C1.28844 19.9967 1.24926 20.112 1.25001 20.2425L19.6337 19.9024ZM19.6337 19.9024C19.7112 19.9961 19.7508 20.1113 19.75 20.2426L19.75 20.2432M19.6337 19.9024L19.75 20.2432M19.75 20.2432C19.7491 20.3977 19.692 20.5341 19.6248 20.6141C19.5941 20.6507 19.568 20.6679 19.5523 20.6757C19.5393 20.6821 19.5234 20.6875 19.4953 20.6875H1.50472C1.47664 20.6875 1.46073 20.6821 1.44782 20.6757M19.75 20.2432L1.44782 20.6757M1.44782 20.6757C1.43227 20.668 1.40617 20.6508 1.37545 20.6142M1.44782 20.6757L1.37545 20.6142M1.37545 20.6142C1.30827 20.5342 1.25096 20.3976 1.25001 20.2426L1.37545 20.6142ZM11.9149 24.875C11.573 25.4339 11.0194 25.75 10.5 25.75C9.98059 25.75 9.42698 25.4339 9.08508 24.875H11.9149Z" stroke="#E3E3E3" stroke-width="2.5"/>
</svg>
