<svg width="30" height="22" viewBox="0 0 30 22" fill="none" xmlns="http://www.w3.org/2000/svg">
<path d="M0 19.6429C0 20.9442 1.11979 22 2.5 22H27.5C28.8802 22 30 20.9442 30 19.6429V11H0V19.6429ZM10 16.3036C10 15.9795 10.2812 15.7143 10.625 15.7143H17.7083C18.0521 15.7143 18.3333 15.9795 18.3333 16.3036V18.2679C18.3333 18.592 18.0521 18.8571 17.7083 18.8571H10.625C10.2812 18.8571 10 18.592 10 18.2679V16.3036ZM3.33333 16.3036C3.33333 15.9795 3.61458 15.7143 3.95833 15.7143H7.70833C8.05208 15.7143 8.33333 15.9795 8.33333 16.3036V18.2679C8.33333 18.592 8.05208 18.8571 7.70833 18.8571H3.95833C3.61458 18.8571 3.33333 18.592 3.33333 18.2679V16.3036ZM30 2.35714V4.71429H0V2.35714C0 1.0558 1.11979 0 2.5 0H27.5C28.8802 0 30 1.0558 30 2.35714Z" fill="#818181"/>
</svg>
