<svg width="30" height="22" viewBox="0 0 30 22" fill="none" xmlns="http://www.w3.org/2000/svg">
<path d="M29.1164 1.10295C27.2982 0.303973 25.4785 5.9064e-08 23.6598 5.9064e-08C17.8863 -0.000491012 12.1132 3.06134 6.33974 3.06134C4.8918 3.06134 3.44479 2.86884 1.99684 2.38759C1.83419 2.33357 1.67107 2.30804 1.5117 2.30804C0.704989 2.30804 0 2.96214 0 3.87013V19.4499C0 20.0701 0.338901 20.6579 0.883111 20.8966C2.70136 21.696 4.52102 22 6.33974 22C12.1132 22 17.8868 18.9382 23.6603 18.9382C25.1082 18.9382 26.5552 19.1307 28.0032 19.6119C28.1658 19.6659 28.3289 19.6915 28.4883 19.6915C29.295 19.6915 30 19.0374 30 18.1294V2.55013C29.9995 1.92942 29.6606 1.3421 29.1164 1.10295ZM2.24996 4.92152C3.19307 5.16902 4.17743 5.29326 5.18992 5.36004C4.9143 6.8033 3.70307 7.89103 2.24996 7.89103V4.92152ZM2.24996 18.9171V16.5707C3.86103 16.5707 5.16461 17.9099 5.23632 19.5859C4.18025 19.497 3.19307 19.276 2.24996 18.9171ZM14.9998 15.7143C12.9284 15.7143 11.2498 13.6032 11.2498 11C11.2498 8.39634 12.9289 6.28571 14.9998 6.28571C17.0707 6.28571 18.7497 8.39634 18.7497 11C18.7497 13.6042 17.0702 15.7143 14.9998 15.7143ZM27.7496 17.0785C26.9283 16.8629 26.0757 16.7421 25.2034 16.664C25.4785 15.3833 26.4924 14.411 27.7496 14.244V17.0785ZM27.7496 5.48379C26.3016 5.29179 25.178 4.02531 25.1335 2.46125C26.0494 2.56781 26.919 2.76719 27.7496 3.08295V5.48379Z" fill="#818181"/>
</svg>
