<svg width="30" height="30" viewBox="0 0 30 30" fill="none" xmlns="http://www.w3.org/2000/svg">
<path d="M7.87012 7.87158V9.75368C8.19971 9.56489 8.39652 9.23108 8.44996 8.9135C8.4884 8.6844 8.50416 8.13859 7.87012 7.87158Z" fill="white"/>
<path d="M6.38689 5.38213C6.34008 5.63051 6.39932 5.86125 6.53789 5.96988C6.5867 6.00814 6.64049 6.04576 6.69814 6.08273V4.85742C6.51937 4.99453 6.42082 5.20213 6.38689 5.38213Z" fill="white"/>
<path d="M7.32422 0C3.28564 0 0 3.28564 0 7.32422C0 11.3628 3.28564 14.6484 7.32422 14.6484C11.3628 14.6484 14.6484 11.3628 14.6484 7.32422C14.6484 3.28564 11.3628 0 7.32422 0ZM9.60522 9.10758C9.46734 9.9276 8.84332 10.7592 7.86973 11.0062V11.4258C7.86973 11.7493 7.60734 12.0117 7.28379 12.0117C6.96023 12.0117 6.69785 11.7493 6.69785 11.4258V11.0624C6.22477 11.0215 5.8326 10.8937 5.27666 10.53C5.00584 10.3529 4.92996 9.98971 5.10709 9.71889C5.28416 9.44812 5.64738 9.37207 5.9182 9.54932C6.23461 9.75627 6.43307 9.84604 6.69785 9.8833V7.40883C6.32361 7.23732 6.04389 7.07227 5.81437 6.89221C5.32811 6.51082 5.10609 5.84918 5.23494 5.16533C5.37533 4.42014 5.89406 3.82723 6.58857 3.61805C6.62537 3.60697 6.66176 3.59684 6.69785 3.58723V3.22266C6.69785 2.8991 6.96023 2.63672 7.28379 2.63672C7.60734 2.63672 7.86973 2.8991 7.86973 3.22266V3.52307C8.43861 3.62156 8.84068 3.90164 9.03545 4.12523C9.24803 4.36922 9.22248 4.73936 8.9785 4.95188C8.7358 5.16322 8.36836 5.13932 8.1552 4.89885C8.14184 4.88531 8.04873 4.79566 7.86973 4.72963V6.62291C7.97373 6.66152 8.07768 6.69896 8.17969 6.73506C9.20965 7.0991 9.78252 8.0526 9.60522 9.10758Z" fill="white"/>
<path d="M29.2683 13.0202L26.2122 12.5012C25.8282 11.9042 25.3749 11.3539 24.8586 10.858C25.1555 9.3733 25.9554 8.05266 27.1419 7.10344L27.3264 6.9559C27.6179 6.72275 27.7303 6.33088 27.6067 5.97861C27.4831 5.62635 27.1506 5.39062 26.7773 5.39062H24.4336C22.3597 5.39062 20.4618 6.56314 19.5098 8.37082C19.1943 8.33725 18.8815 8.32031 18.5742 8.32031H16.3514C15.8537 12.8613 11.9955 16.4062 7.32422 16.4062C4.7724 16.4062 2.46352 15.348 0.812109 13.6478C0.281016 14.8177 0 16.0965 0 17.4023C0 20.2086 1.30605 22.8553 3.51562 24.5727V29.1211C3.51562 29.6065 3.90914 30 4.39453 30H7.91016C8.28844 30 8.6243 29.7579 8.74395 29.399L9.71555 26.4844H17.9408L18.9123 29.399C19.032 29.7579 19.3678 30 19.7461 30H23.2617C23.7471 30 24.1406 29.6065 24.1406 29.1211V24.5728C25.3492 23.6341 26.2945 22.4143 26.9028 21.0073L29.4512 19.9747C29.7829 19.8403 30 19.5181 30 19.1602V13.8867C30 13.4581 29.6909 13.092 29.2683 13.0202ZM22.3828 15.0586C21.8974 15.0586 21.5039 14.6651 21.5039 14.1797C21.5039 13.6943 21.8974 13.3008 22.3828 13.3008C22.8682 13.3008 23.2617 13.6943 23.2617 14.1797C23.2617 14.6651 22.8682 15.0586 22.3828 15.0586Z" fill="white"/>
</svg>
